<svg width="18" height="20" viewBox="0 0 18 20" fill="none" xmlns="http://www.w3.org/2000/svg">
<path fill-rule="evenodd" clip-rule="evenodd" d="M1.52051 6.41117L1.5215 6.71539L16.4696 6.69583V6.35346C16.4272 4.25032 15.349 3.14691 13.4139 2.98257L13.4149 3.73579C13.4149 4.15641 13.0801 4.48998 12.6556 4.48998C12.2212 4.49096 11.8944 4.15837 11.8944 3.73774L11.8934 2.9454L6.02865 2.95322L6.02964 3.74459C6.02964 4.1662 5.70481 4.49878 5.27039 4.49878C4.83596 4.49976 4.50916 4.16815 4.50916 3.74655L4.50817 2.99333C2.58288 3.18212 1.51755 4.28945 1.52051 6.41117ZM13.0486 10.3396C12.5944 10.3494 12.2389 10.7113 12.2399 11.1613V11.1721C12.2498 11.622 12.625 11.9634 13.0801 11.9536C13.5244 11.9429 13.8789 11.5702 13.869 11.1202C13.8483 10.6898 13.4919 10.3386 13.0486 10.3396ZM12.234 14.7229C12.2241 14.2729 12.5885 13.9002 13.0426 13.8895H13.0525C13.5166 13.8895 13.8927 14.2602 13.8927 14.72C13.8937 15.1797 13.5185 15.5524 13.0555 15.5534C12.6013 15.5436 12.235 15.1729 12.234 14.7229ZM8.98074 10.3348C8.52657 10.3544 8.17113 10.7271 8.17212 11.177C8.19187 11.627 8.56804 11.9782 9.02221 11.9586C9.46651 11.9381 9.82096 11.5664 9.80121 11.1164C9.79035 10.6762 9.42504 10.3338 8.98074 10.3348ZM8.17609 14.7279C8.17609 14.2779 8.53054 13.9062 8.98471 13.8857C9.42901 13.8847 9.7953 14.2271 9.80518 14.6663C9.82591 15.1172 9.47047 15.489 9.02618 15.5095C8.572 15.5291 8.19682 15.1779 8.17609 14.7279ZM4.91201 10.369C4.45784 10.3885 4.10338 10.7612 4.10437 11.2112C4.12412 11.6612 4.50029 12.0133 4.95446 11.9928C5.39876 11.9732 5.75321 11.6005 5.73248 11.1506C5.7226 10.7104 5.35729 10.368 4.91201 10.369ZM4.10828 14.7327C4.10729 14.2827 4.46273 13.91 4.9169 13.8905C5.3612 13.8895 5.7275 14.2319 5.73737 14.6721C5.7581 15.122 5.40365 15.4947 4.95837 15.5143C4.5042 15.5348 4.12901 15.1827 4.10828 14.7327ZM13.4109 0.752241C13.4099 0.321831 13.0742 -0.000975986 12.6497 2.21722e-06C12.2152 0.000980421 11.8894 0.323787 11.8904 0.754197L11.8914 1.43894L6.02666 1.44676L6.02567 0.762023C6.02468 0.331613 5.69886 0.00880605 5.26444 0.00978425C4.83001 0.00978425 4.5042 0.33357 4.50518 0.763979L4.50617 1.49763C1.75153 1.74512 -0.00394266 3.57729 6.64975e-06 6.4131L0.0108673 14.5625C0.0148166 17.6429 2.01119 19.5778 5.15188 19.5738L12.8718 19.5641C16.0322 19.5592 18.0039 17.6693 18 14.5977L17.9891 6.35148C17.9862 3.53425 16.1665 1.69718 13.4119 1.48589L13.4109 0.752241Z" fill="#D7D7D7"/>
</svg>
