<svg width="20" height="18" viewBox="0 0 20 18" fill="none" xmlns="http://www.w3.org/2000/svg">
<path d="M7.34933 0C10.0489 0 12.2123 2.11864 12.2123 4.7624C12.2123 7.40615 10.0489 9.52479 7.34933 9.52479C4.6507 9.52479 2.48632 7.40615 2.48632 4.7624C2.48632 2.11864 4.6507 0 7.34933 0Z" fill="#FD6B22"/>
<path d="M7.34931 17.9999C3.36399 17.9999 0 17.3665 0 14.9173C0 12.47 3.38552 11.8577 7.34931 11.8577C11.3346 11.8577 14.6986 12.4911 14.6986 14.9403C14.6986 17.3876 11.3131 17.9999 7.34931 17.9999Z" fill="#FD6B22"/>
<path d="M13.0365 8.49478C12.9612 8.6021 13.0277 8.74679 13.1588 8.76979C13.3408 8.79949 13.5277 8.8177 13.7185 8.82153C15.6167 8.8704 17.3203 7.67357 17.7909 5.87115C18.4885 3.19673 16.4416 0.795408 13.834 0.795408C13.5512 0.795408 13.2801 0.824155 13.0159 0.876857C12.9797 0.884523 12.9406 0.901771 12.921 0.932434C12.8956 0.971722 12.9142 1.02251 12.9396 1.05605C13.7234 2.13214 14.1735 3.44204 14.1735 4.84872C14.1735 6.19503 13.7606 7.45127 13.0365 8.49478Z" fill="#FD6B22"/>
<path d="M13.5697 10.3832C15.0854 10.3545 16.7155 10.5586 17.3173 10.7023C18.5932 10.9466 19.4318 11.444 19.7791 12.1693C20.0737 12.7634 20.0737 13.4534 19.7791 14.0475C19.2478 15.1705 17.5335 15.5318 16.8672 15.6247C16.7292 15.6439 16.6187 15.5289 16.6333 15.3928C16.9739 12.2805 14.2664 10.8048 13.5658 10.4656C13.5365 10.4493 13.5296 10.4263 13.5326 10.411C13.5345 10.4014 13.5472 10.3861 13.5697 10.3832Z" fill="#FD6B22"/>
</svg>
