<svg width="18" height="20" viewBox="0 0 18 20" fill="none" xmlns="http://www.w3.org/2000/svg">
<path fill-rule="evenodd" clip-rule="evenodd" d="M1.52049 6.41116L1.52148 6.71538L16.4696 6.69582V6.35345C16.4272 4.25031 15.349 3.1469 13.4138 2.98256L13.4148 3.73578C13.4148 4.1564 13.0801 4.48997 12.6556 4.48997C12.2212 4.49095 11.8943 4.15836 11.8943 3.73773L11.8934 2.94539L6.02863 2.95321L6.02962 3.74458C6.02962 4.16618 5.70479 4.49877 5.27036 4.49877C4.83594 4.49975 4.50913 4.16814 4.50913 3.74654L4.50815 2.99332C2.58286 3.18211 1.51753 4.28944 1.52049 6.41116ZM13.0485 10.3396C12.5944 10.3494 12.2389 10.7113 12.2399 11.1613V11.1721C12.2498 11.622 12.625 11.9634 13.0801 11.9536C13.5244 11.9429 13.8789 11.5702 13.869 11.1202C13.8483 10.6898 13.4918 10.3386 13.0485 10.3396ZM12.234 14.7229C12.2241 14.273 12.5884 13.9003 13.0426 13.8895H13.0525C13.5165 13.8895 13.8927 14.2603 13.8927 14.72C13.8937 15.1798 13.5185 15.5525 13.0554 15.5534C12.6013 15.5437 12.235 15.1729 12.234 14.7229ZM8.98073 10.3348C8.52656 10.3544 8.17113 10.7271 8.17211 11.1771C8.19186 11.627 8.56803 11.9782 9.0222 11.9586C9.4665 11.9381 9.82095 11.5664 9.8012 11.1164C9.79034 10.6762 9.42503 10.3338 8.98073 10.3348ZM8.17608 14.7279C8.17608 14.278 8.53053 13.9062 8.9847 13.8857C9.429 13.8847 9.7953 14.2271 9.80517 14.6663C9.8259 15.1172 9.47047 15.489 9.02617 15.5095C8.572 15.5291 8.19681 15.1779 8.17608 14.7279ZM4.91197 10.369C4.4578 10.3886 4.10335 10.7613 4.10433 11.2112C4.12408 11.6612 4.50025 12.0134 4.95442 11.9928C5.39872 11.9732 5.75317 11.6005 5.73244 11.1506C5.72256 10.7104 5.35725 10.368 4.91197 10.369ZM4.10827 14.7327C4.10728 14.2827 4.46272 13.91 4.91689 13.8905C5.36119 13.8895 5.72749 14.2319 5.73736 14.672C5.7581 15.122 5.40365 15.4947 4.95836 15.5143C4.50419 15.5348 4.129 15.1827 4.10827 14.7327ZM13.4109 0.752241C13.4099 0.321831 13.0742 -0.000975986 12.6497 2.21722e-06C12.2152 0.000980421 11.8894 0.323787 11.8904 0.754197L11.8914 1.43894L6.02666 1.44676L6.02567 0.762023C6.02468 0.331613 5.69886 0.00880605 5.26444 0.00978425C4.83001 0.00978425 4.5042 0.33357 4.50518 0.763979L4.50617 1.49763C1.75153 1.74512 -0.00394266 3.57729 6.64975e-06 6.4131L0.0108673 14.5625C0.0148166 17.6429 2.01119 19.5778 5.15188 19.5738L12.8718 19.5641C16.0322 19.5592 18.0039 17.6693 18 14.5977L17.9891 6.35148C17.9862 3.53425 16.1665 1.69718 13.4119 1.48589L13.4109 0.752241Z" fill="#22B07D"/>
</svg>
